<svg viewBox="0 0 17 32" xmlns="http://www.w3.org/2000/svg" class="css-1m3by0h">
        <path d="M1.05282 32C0.763813 32 0.51609 31.8957 0.309654 31.6872C0.227079 31.6246 0.16515 31.5516 0.123861 31.4682C0.0825748 31.3848 0.051609 31.2962 0.0309658 31.2023C0.0103226 31.1085 0 31.0147 0 30.9208C0 30.827 0.0103226 30.7384 0.0309658 30.6549C0.051609 30.5715 0.0825748 30.4881 0.123861 30.4047C0.16515 30.3213 0.227079 30.2379 0.309654 30.1544L14.4299 15.8905L0.495447 1.81427C0.371584 1.68915 0.28385 1.53275 0.232241 1.34506C0.180632 1.15738 0.180632 0.969696 0.232241 0.782013C0.28385 0.59433 0.371584 0.437927 0.495447 0.312805C0.701881 0.104269 0.954765 0 1.2541 0C1.55343 0 1.80631 0.104269 2.01275 0.312805L16.6903 15.1398C16.8968 15.3483 17 15.5986 17 15.8905C17 16.1825 16.8968 16.4327 16.6903 16.6413L1.79599 31.6872C1.58956 31.8957 1.34183 32 1.05282 32Z"/>
    </svg>