<svg viewBox="0 0 17 32" xmlns="http://www.w3.org/2000/svg" class="css-1m3by0h">
        <path d="M15.9472 0C16.2362 0 16.4839 0.104268 16.6903 0.312805C16.7729 0.375367 16.8349 0.448355 &#10;            16.8761 0.531769C16.9174 0.615184 16.9484 0.703812 16.969 0.797654C16.9897 0.891496 17 0.985337 &#10;            17 1.07918C17 1.17302 16.9897 1.26165 16.969 1.34506C16.9484 1.42848 16.9174 1.51189 16.8761 &#10;            1.59531C16.8349 1.67872 16.7729 1.76214 16.6903 1.84555L2.57013 16.1095L16.5046 30.1857C16.6284 30.3109 &#10;            16.7162 30.4673 16.7678 30.6549C16.8194 30.8426 16.8194 31.0303 16.7678 31.218C16.7162 31.4057 16.6284 31.5621 &#10;            16.5046 31.6872C16.2981 31.8957 16.0452 32 15.7459 32C15.4466 32 15.1937 31.8957 14.9872 31.6872L0.309654 &#10;            16.8602C0.103218 16.6517 0 16.4014 0 16.1095C0 15.8175 0.103218 15.5673 0.309654 15.3587L15.204 0.312805C15.4104 0.104268 15.6582 0 15.9472 0Z"/>
    </svg>